<?xml version="1.0" encoding="UTF-8" standalone="no"?>
<!DOCTYPE svg PUBLIC "-//W3C//DTD SVG 1.1//EN" "http://www.w3.org/Graphics/SVG/1.1/DTD/svg11.dtd">
<svg width="100%" height="100%" viewBox="0 0 1080 1080" version="1.1" xmlns="http://www.w3.org/2000/svg" xmlns:xlink="http://www.w3.org/1999/xlink" xml:space="preserve" xmlns:serif="http://www.serif.com/" style="fill-rule:evenodd;clip-rule:evenodd;stroke-linecap:round;stroke-linejoin:round;stroke-miterlimit:1.5;">
    <g transform="matrix(1,0,0,1,6.19048,64.7619)">
        <path d="M1042.86,94.286L1042.86,206.667C1042.86,237.679 1017.68,262.857 986.667,262.857L80.952,262.857C49.94,262.857 24.762,237.679 24.762,206.667L24.762,94.286C24.762,63.273 49.94,38.095 80.952,38.095L986.667,38.095C1017.68,38.095 1042.86,63.273 1042.86,94.286Z" style="fill:rgb(213,235,235);stroke:black;stroke-width:2.14px;"/>
    </g>
    <g transform="matrix(1,0,0,1,6.19048,714.286)">
        <path d="M1042.86,94.286L1042.86,206.667C1042.86,237.679 1017.68,262.857 986.667,262.857L80.952,262.857C49.94,262.857 24.762,237.679 24.762,206.667L24.762,94.286C24.762,63.273 49.94,38.095 80.952,38.095L986.667,38.095C1017.68,38.095 1042.86,63.273 1042.86,94.286Z" style="fill:rgb(213,235,235);stroke:black;stroke-width:2.14px;"/>
    </g>
    <g transform="matrix(1,0,0,1,6.19048,389.524)">
        <path d="M1042.86,94.286L1042.86,206.667C1042.86,237.679 1017.68,262.857 986.667,262.857L80.952,262.857C49.94,262.857 24.762,237.679 24.762,206.667L24.762,94.286C24.762,63.273 49.94,38.095 80.952,38.095L986.667,38.095C1017.68,38.095 1042.86,63.273 1042.86,94.286Z" style="fill:rgb(213,235,235);stroke:black;stroke-width:2.14px;"/>
    </g>
    <g transform="matrix(1,0,0,1,61.3964,-16.3098)">
        <g transform="matrix(102,0,0,102,81.9048,260)">
            <path d="M0.36,-0.727L0.36,-0L0.229,-0L0.229,-0.599L0.224,-0.599L0.054,-0.49L0.054,-0.611L0.235,-0.727L0.36,-0.727Z" style="fill-rule:nonzero;"/>
        </g>
        <g transform="matrix(102,0,0,102,126.602,260)">
            <path d="M0.145,0.008C0.124,0.008 0.105,0 0.09,-0.015C0.074,-0.03 0.067,-0.049 0.067,-0.07C0.067,-0.092 0.074,-0.11 0.09,-0.125C0.105,-0.14 0.124,-0.148 0.145,-0.148C0.166,-0.148 0.184,-0.14 0.2,-0.125C0.215,-0.11 0.223,-0.092 0.223,-0.07C0.223,-0.056 0.219,-0.043 0.212,-0.031C0.205,-0.019 0.195,-0.01 0.184,-0.002C0.172,0.004 0.159,0.008 0.145,0.008Z" style="fill-rule:nonzero;"/>
        </g>
        <g transform="matrix(102,0,0,102,156.231,260)">
        </g>
        <g transform="matrix(102,0,0,102,181.55,260)">
            <path d="M0.694,-0.482L0.561,-0.482C0.558,-0.504 0.551,-0.523 0.54,-0.54C0.53,-0.557 0.518,-0.571 0.502,-0.583C0.487,-0.595 0.47,-0.604 0.451,-0.61C0.431,-0.616 0.411,-0.619 0.388,-0.619C0.349,-0.619 0.314,-0.609 0.283,-0.589C0.253,-0.569 0.229,-0.541 0.212,-0.502C0.194,-0.465 0.186,-0.418 0.186,-0.364C0.186,-0.308 0.194,-0.261 0.212,-0.223C0.229,-0.185 0.253,-0.156 0.283,-0.137C0.314,-0.118 0.349,-0.108 0.388,-0.108C0.41,-0.108 0.43,-0.111 0.449,-0.117C0.468,-0.123 0.486,-0.131 0.501,-0.143C0.516,-0.154 0.529,-0.168 0.539,-0.185C0.55,-0.201 0.557,-0.22 0.561,-0.241L0.694,-0.241C0.689,-0.206 0.679,-0.174 0.662,-0.143C0.646,-0.113 0.624,-0.086 0.598,-0.063C0.571,-0.04 0.54,-0.022 0.505,-0.009C0.469,0.004 0.43,0.01 0.386,0.01C0.322,0.01 0.265,-0.005 0.215,-0.034C0.165,-0.064 0.125,-0.107 0.097,-0.163C0.068,-0.219 0.053,-0.286 0.053,-0.364C0.053,-0.442 0.068,-0.509 0.097,-0.565C0.126,-0.621 0.166,-0.663 0.216,-0.693C0.266,-0.722 0.323,-0.737 0.386,-0.737C0.427,-0.737 0.464,-0.732 0.499,-0.72C0.534,-0.709 0.565,-0.692 0.592,-0.67C0.62,-0.648 0.642,-0.622 0.659,-0.59C0.677,-0.558 0.689,-0.522 0.694,-0.482Z" style="fill-rule:nonzero;"/>
        </g>
        <g transform="matrix(102,0,0,102,257.398,260)">
            <path d="M0.066,-0L0.066,-0.545L0.191,-0.545L0.191,-0.455L0.196,-0.455C0.206,-0.486 0.223,-0.51 0.248,-0.527C0.272,-0.545 0.3,-0.553 0.331,-0.553C0.338,-0.553 0.346,-0.553 0.355,-0.552C0.364,-0.552 0.371,-0.551 0.377,-0.55L0.377,-0.431C0.372,-0.433 0.363,-0.435 0.351,-0.436C0.34,-0.438 0.328,-0.439 0.317,-0.439C0.294,-0.439 0.273,-0.434 0.254,-0.424C0.236,-0.414 0.221,-0.4 0.211,-0.382C0.2,-0.364 0.195,-0.344 0.195,-0.321L0.195,-0L0.066,-0Z" style="fill-rule:nonzero;"/>
        </g>
        <g transform="matrix(102,0,0,102,296.119,260)">
            <path d="M0.308,0.011C0.253,0.011 0.206,-0.001 0.166,-0.023C0.126,-0.046 0.096,-0.079 0.075,-0.121C0.053,-0.163 0.043,-0.212 0.043,-0.27C0.043,-0.326 0.053,-0.375 0.075,-0.417C0.096,-0.46 0.126,-0.493 0.165,-0.517C0.203,-0.541 0.249,-0.553 0.301,-0.553C0.334,-0.553 0.366,-0.547 0.396,-0.536C0.426,-0.526 0.453,-0.509 0.475,-0.487C0.499,-0.464 0.517,-0.435 0.53,-0.401C0.543,-0.366 0.55,-0.325 0.55,-0.277L0.55,-0.238L0.103,-0.238L0.103,-0.324L0.427,-0.324C0.427,-0.349 0.421,-0.371 0.411,-0.39C0.4,-0.409 0.386,-0.425 0.367,-0.436C0.349,-0.447 0.327,-0.452 0.303,-0.452C0.276,-0.452 0.253,-0.446 0.233,-0.433C0.213,-0.421 0.198,-0.404 0.187,-0.384C0.176,-0.363 0.17,-0.341 0.17,-0.316L0.17,-0.241C0.17,-0.209 0.176,-0.182 0.188,-0.159C0.199,-0.137 0.215,-0.119 0.236,-0.107C0.257,-0.095 0.281,-0.089 0.309,-0.089C0.328,-0.089 0.345,-0.092 0.36,-0.097C0.375,-0.103 0.388,-0.111 0.4,-0.121C0.411,-0.132 0.419,-0.144 0.425,-0.16L0.545,-0.146C0.537,-0.115 0.523,-0.087 0.501,-0.063C0.48,-0.04 0.453,-0.022 0.42,-0.009C0.388,0.004 0.35,0.011 0.308,0.011Z" style="fill-rule:nonzero;"/>
        </g>
        <g transform="matrix(102,0,0,102,356.573,260)">
            <path d="M0.223,0.011C0.188,0.011 0.157,0.005 0.13,-0.007C0.102,-0.02 0.08,-0.038 0.064,-0.063C0.048,-0.087 0.04,-0.117 0.04,-0.153C0.04,-0.184 0.046,-0.209 0.058,-0.229C0.069,-0.25 0.084,-0.266 0.104,-0.278C0.124,-0.29 0.146,-0.299 0.17,-0.305C0.195,-0.311 0.221,-0.316 0.248,-0.319C0.279,-0.322 0.305,-0.325 0.325,-0.328C0.345,-0.331 0.36,-0.335 0.369,-0.341C0.378,-0.346 0.382,-0.356 0.382,-0.368L0.382,-0.37C0.382,-0.397 0.375,-0.417 0.359,-0.432C0.343,-0.447 0.32,-0.454 0.29,-0.454C0.259,-0.454 0.234,-0.447 0.215,-0.434C0.197,-0.42 0.185,-0.404 0.178,-0.385L0.058,-0.402C0.068,-0.435 0.083,-0.463 0.105,-0.485C0.127,-0.508 0.154,-0.524 0.185,-0.536C0.217,-0.547 0.251,-0.553 0.289,-0.553C0.316,-0.553 0.342,-0.549 0.368,-0.543C0.394,-0.537 0.418,-0.527 0.439,-0.513C0.461,-0.499 0.478,-0.48 0.491,-0.456C0.504,-0.431 0.511,-0.401 0.511,-0.365L0.511,-0L0.387,-0L0.387,-0.075L0.383,-0.075C0.375,-0.06 0.364,-0.046 0.35,-0.032C0.336,-0.019 0.319,-0.009 0.297,-0.001C0.276,0.007 0.251,0.011 0.223,0.011ZM0.256,-0.083C0.282,-0.083 0.305,-0.089 0.324,-0.099C0.342,-0.109 0.357,-0.123 0.367,-0.14C0.378,-0.157 0.383,-0.176 0.383,-0.196L0.383,-0.26C0.379,-0.257 0.372,-0.254 0.362,-0.251C0.353,-0.248 0.342,-0.245 0.33,-0.243C0.318,-0.241 0.307,-0.239 0.295,-0.238C0.283,-0.236 0.273,-0.234 0.265,-0.233C0.246,-0.231 0.229,-0.226 0.213,-0.221C0.198,-0.215 0.186,-0.206 0.178,-0.196C0.169,-0.185 0.164,-0.172 0.164,-0.155C0.164,-0.132 0.173,-0.114 0.19,-0.102C0.208,-0.089 0.23,-0.083 0.256,-0.083Z" style="fill-rule:nonzero;"/>
        </g>
        <g transform="matrix(102,0,0,102,415.18,260)">
            <path d="M0.338,-0.545L0.338,-0.446L0.025,-0.446L0.025,-0.545L0.338,-0.545ZM0.102,-0.676L0.231,-0.676L0.231,-0.164C0.231,-0.147 0.233,-0.134 0.239,-0.124C0.244,-0.115 0.251,-0.109 0.26,-0.106C0.269,-0.103 0.278,-0.101 0.289,-0.101C0.297,-0.101 0.304,-0.101 0.311,-0.103C0.318,-0.104 0.323,-0.105 0.327,-0.106L0.348,-0.005C0.342,-0.003 0.332,-0 0.319,0.002C0.306,0.005 0.291,0.007 0.273,0.007C0.241,0.008 0.212,0.004 0.186,-0.007C0.16,-0.018 0.139,-0.035 0.124,-0.058C0.109,-0.08 0.102,-0.109 0.102,-0.143L0.102,-0.676Z" style="fill-rule:nonzero;"/>
        </g>
        <g transform="matrix(102,0,0,102,453.357,260)">
            <path d="M0.308,0.011C0.253,0.011 0.206,-0.001 0.166,-0.023C0.126,-0.046 0.096,-0.079 0.075,-0.121C0.053,-0.163 0.043,-0.212 0.043,-0.27C0.043,-0.326 0.053,-0.375 0.075,-0.417C0.096,-0.46 0.126,-0.493 0.165,-0.517C0.203,-0.541 0.249,-0.553 0.301,-0.553C0.334,-0.553 0.366,-0.547 0.396,-0.536C0.426,-0.526 0.453,-0.509 0.475,-0.487C0.499,-0.464 0.517,-0.435 0.53,-0.401C0.543,-0.366 0.55,-0.325 0.55,-0.277L0.55,-0.238L0.103,-0.238L0.103,-0.324L0.427,-0.324C0.427,-0.349 0.421,-0.371 0.411,-0.39C0.4,-0.409 0.386,-0.425 0.367,-0.436C0.349,-0.447 0.327,-0.452 0.303,-0.452C0.276,-0.452 0.253,-0.446 0.233,-0.433C0.213,-0.421 0.198,-0.404 0.187,-0.384C0.176,-0.363 0.17,-0.341 0.17,-0.316L0.17,-0.241C0.17,-0.209 0.176,-0.182 0.188,-0.159C0.199,-0.137 0.215,-0.119 0.236,-0.107C0.257,-0.095 0.281,-0.089 0.309,-0.089C0.328,-0.089 0.345,-0.092 0.36,-0.097C0.375,-0.103 0.388,-0.111 0.4,-0.121C0.411,-0.132 0.419,-0.144 0.425,-0.16L0.545,-0.146C0.537,-0.115 0.523,-0.087 0.501,-0.063C0.48,-0.04 0.453,-0.022 0.42,-0.009C0.388,0.004 0.35,0.011 0.308,0.011Z" style="fill-rule:nonzero;"/>
        </g>
        <g transform="matrix(102,0,0,102,513.811,260)">
        </g>
        <g transform="matrix(102,0,0,102,539.13,260)">
            <path d="M0.072,-0L0.072,-0.727L0.344,-0.727C0.4,-0.727 0.447,-0.717 0.485,-0.696C0.523,-0.675 0.552,-0.647 0.571,-0.61C0.591,-0.574 0.601,-0.533 0.601,-0.487C0.601,-0.44 0.591,-0.398 0.571,-0.362C0.552,-0.326 0.523,-0.297 0.484,-0.277C0.446,-0.256 0.399,-0.246 0.343,-0.246L0.162,-0.246L0.162,-0.354L0.325,-0.354C0.358,-0.354 0.384,-0.36 0.405,-0.371C0.426,-0.382 0.441,-0.398 0.451,-0.418C0.462,-0.438 0.467,-0.461 0.467,-0.487C0.467,-0.512 0.462,-0.535 0.451,-0.555C0.441,-0.574 0.426,-0.59 0.405,-0.6C0.384,-0.612 0.357,-0.617 0.324,-0.617L0.203,-0.617L0.203,-0L0.072,-0Z" style="fill-rule:nonzero;"/>
        </g>
        <g transform="matrix(102,0,0,102,604.763,260)">
            <path d="M0.066,-0L0.066,-0.545L0.191,-0.545L0.191,-0.455L0.196,-0.455C0.206,-0.486 0.223,-0.51 0.248,-0.527C0.272,-0.545 0.3,-0.553 0.331,-0.553C0.338,-0.553 0.346,-0.553 0.355,-0.552C0.364,-0.552 0.371,-0.551 0.377,-0.55L0.377,-0.431C0.372,-0.433 0.363,-0.435 0.351,-0.436C0.34,-0.438 0.328,-0.439 0.317,-0.439C0.294,-0.439 0.273,-0.434 0.254,-0.424C0.236,-0.414 0.221,-0.4 0.211,-0.382C0.2,-0.364 0.195,-0.344 0.195,-0.321L0.195,-0L0.066,-0Z" style="fill-rule:nonzero;"/>
        </g>
        <g transform="matrix(102,0,0,102,643.484,260)">
            <path d="M0.304,0.011C0.251,0.011 0.205,-0.001 0.165,-0.025C0.126,-0.048 0.096,-0.081 0.075,-0.123C0.053,-0.165 0.043,-0.214 0.043,-0.271C0.043,-0.327 0.053,-0.376 0.075,-0.419C0.096,-0.461 0.126,-0.494 0.165,-0.517C0.205,-0.541 0.251,-0.553 0.304,-0.553C0.357,-0.553 0.403,-0.541 0.442,-0.517C0.482,-0.494 0.512,-0.461 0.533,-0.419C0.555,-0.376 0.565,-0.327 0.565,-0.271C0.565,-0.214 0.555,-0.165 0.533,-0.123C0.512,-0.081 0.482,-0.048 0.442,-0.025C0.403,-0.001 0.357,0.011 0.304,0.011ZM0.305,-0.092C0.334,-0.092 0.358,-0.1 0.377,-0.116C0.397,-0.132 0.411,-0.154 0.42,-0.181C0.43,-0.208 0.435,-0.238 0.435,-0.271C0.435,-0.304 0.43,-0.335 0.42,-0.362C0.411,-0.389 0.397,-0.41 0.377,-0.426C0.358,-0.443 0.334,-0.451 0.305,-0.451C0.275,-0.451 0.25,-0.443 0.231,-0.426C0.211,-0.41 0.197,-0.389 0.187,-0.362C0.178,-0.335 0.173,-0.304 0.173,-0.271C0.173,-0.238 0.178,-0.208 0.187,-0.181C0.197,-0.154 0.211,-0.132 0.231,-0.116C0.25,-0.1 0.275,-0.092 0.305,-0.092Z" style="fill-rule:nonzero;"/>
        </g>
        <g transform="matrix(102,0,0,102,705.496,260)">
            <path d="M0.066,-0.545L0.195,-0.545L0.195,0.031C0.195,0.071 0.187,0.103 0.172,0.129C0.157,0.154 0.136,0.173 0.108,0.186C0.079,0.198 0.045,0.205 0.005,0.205C0,0.205 -0.017,0.204 -0.021,0.204L-0.021,0.099C-0.018,0.099 -0.006,0.1 -0.003,0.1C0.022,0.1 0.039,0.094 0.05,0.082C0.061,0.07 0.066,0.052 0.066,0.029L0.066,-0.545ZM0.13,-0.623C0.109,-0.623 0.092,-0.63 0.077,-0.643C0.063,-0.657 0.055,-0.673 0.055,-0.692C0.055,-0.712 0.063,-0.728 0.077,-0.742C0.092,-0.756 0.109,-0.762 0.13,-0.762C0.15,-0.762 0.168,-0.756 0.182,-0.742C0.197,-0.728 0.204,-0.712 0.204,-0.692C0.204,-0.673 0.197,-0.657 0.182,-0.643C0.168,-0.63 0.15,-0.623 0.13,-0.623Z" style="fill-rule:nonzero;"/>
        </g>
        <g transform="matrix(102,0,0,102,732.082,260)">
            <path d="M0.308,0.011C0.253,0.011 0.206,-0.001 0.166,-0.023C0.126,-0.046 0.096,-0.079 0.075,-0.121C0.053,-0.163 0.043,-0.212 0.043,-0.27C0.043,-0.326 0.053,-0.375 0.075,-0.417C0.096,-0.46 0.126,-0.493 0.165,-0.517C0.203,-0.541 0.249,-0.553 0.301,-0.553C0.334,-0.553 0.366,-0.547 0.396,-0.536C0.426,-0.526 0.453,-0.509 0.475,-0.487C0.499,-0.464 0.517,-0.435 0.53,-0.401C0.543,-0.366 0.55,-0.325 0.55,-0.277L0.55,-0.238L0.103,-0.238L0.103,-0.324L0.427,-0.324C0.427,-0.349 0.421,-0.371 0.411,-0.39C0.4,-0.409 0.386,-0.425 0.367,-0.436C0.349,-0.447 0.327,-0.452 0.303,-0.452C0.276,-0.452 0.253,-0.446 0.233,-0.433C0.213,-0.421 0.198,-0.404 0.187,-0.384C0.176,-0.363 0.17,-0.341 0.17,-0.316L0.17,-0.241C0.17,-0.209 0.176,-0.182 0.188,-0.159C0.199,-0.137 0.215,-0.119 0.236,-0.107C0.257,-0.095 0.281,-0.089 0.309,-0.089C0.328,-0.089 0.345,-0.092 0.36,-0.097C0.375,-0.103 0.388,-0.111 0.4,-0.121C0.411,-0.132 0.419,-0.144 0.425,-0.16L0.545,-0.146C0.537,-0.115 0.523,-0.087 0.501,-0.063C0.48,-0.04 0.453,-0.022 0.42,-0.009C0.388,0.004 0.35,0.011 0.308,0.011Z" style="fill-rule:nonzero;"/>
        </g>
        <g transform="matrix(102,0,0,102,792.536,260)">
            <path d="M0.304,0.011C0.25,0.011 0.203,-0.001 0.164,-0.025C0.125,-0.049 0.095,-0.082 0.074,-0.124C0.053,-0.167 0.043,-0.215 0.043,-0.271C0.043,-0.326 0.053,-0.375 0.075,-0.417C0.096,-0.46 0.126,-0.493 0.165,-0.517C0.204,-0.541 0.25,-0.553 0.303,-0.553C0.348,-0.553 0.387,-0.544 0.421,-0.528C0.455,-0.512 0.482,-0.489 0.503,-0.46C0.523,-0.43 0.535,-0.396 0.538,-0.357L0.415,-0.357C0.41,-0.383 0.398,-0.405 0.379,-0.422C0.361,-0.44 0.336,-0.449 0.305,-0.449C0.279,-0.449 0.256,-0.442 0.236,-0.428C0.216,-0.414 0.2,-0.393 0.189,-0.367C0.178,-0.341 0.173,-0.309 0.173,-0.273C0.173,-0.236 0.178,-0.204 0.189,-0.177C0.2,-0.15 0.215,-0.13 0.235,-0.115C0.255,-0.101 0.278,-0.094 0.305,-0.094C0.324,-0.094 0.341,-0.098 0.356,-0.105C0.371,-0.112 0.384,-0.123 0.394,-0.136C0.404,-0.15 0.411,-0.167 0.415,-0.186L0.538,-0.186C0.535,-0.148 0.523,-0.114 0.504,-0.084C0.484,-0.054 0.457,-0.031 0.423,-0.014C0.389,0.002 0.35,0.011 0.304,0.011Z" style="fill-rule:nonzero;"/>
        </g>
        <g transform="matrix(102,0,0,102,851.432,260)">
            <path d="M0.338,-0.545L0.338,-0.446L0.025,-0.446L0.025,-0.545L0.338,-0.545ZM0.102,-0.676L0.231,-0.676L0.231,-0.164C0.231,-0.147 0.233,-0.134 0.239,-0.124C0.244,-0.115 0.251,-0.109 0.26,-0.106C0.269,-0.103 0.278,-0.101 0.289,-0.101C0.297,-0.101 0.304,-0.101 0.311,-0.103C0.318,-0.104 0.323,-0.105 0.327,-0.106L0.348,-0.005C0.342,-0.003 0.332,-0 0.319,0.002C0.306,0.005 0.291,0.007 0.273,0.007C0.241,0.008 0.212,0.004 0.186,-0.007C0.16,-0.018 0.139,-0.035 0.124,-0.058C0.109,-0.08 0.102,-0.109 0.102,-0.143L0.102,-0.676Z" style="fill-rule:nonzero;"/>
        </g>
        <g transform="matrix(102,0,0,102,890.19,260)">
        </g>
    </g>
    <g transform="matrix(1,0,0,1,29.9014,318.341)">
        <g transform="matrix(102,0,0,102,81.9048,260)">
            <path d="M0.065,-0L0.065,-0.095L0.317,-0.343C0.341,-0.367 0.361,-0.389 0.377,-0.408C0.394,-0.427 0.406,-0.445 0.414,-0.463C0.422,-0.48 0.426,-0.499 0.426,-0.52C0.426,-0.542 0.421,-0.562 0.41,-0.578C0.4,-0.595 0.385,-0.608 0.367,-0.617C0.349,-0.626 0.328,-0.63 0.305,-0.63C0.281,-0.63 0.26,-0.625 0.242,-0.615C0.224,-0.606 0.21,-0.592 0.2,-0.574C0.191,-0.556 0.186,-0.534 0.186,-0.51L0.06,-0.51C0.06,-0.556 0.071,-0.596 0.092,-0.63C0.113,-0.664 0.142,-0.69 0.179,-0.709C0.216,-0.728 0.259,-0.737 0.307,-0.737C0.356,-0.737 0.398,-0.728 0.435,-0.71C0.472,-0.692 0.501,-0.667 0.521,-0.635C0.542,-0.603 0.552,-0.567 0.552,-0.526C0.552,-0.499 0.547,-0.472 0.537,-0.446C0.526,-0.42 0.508,-0.391 0.482,-0.359C0.455,-0.327 0.419,-0.288 0.372,-0.243L0.246,-0.115L0.246,-0.11L0.563,-0.11L0.563,-0L0.065,-0Z" style="fill-rule:nonzero;"/>
        </g>
        <g transform="matrix(102,0,0,102,145.293,260)">
            <path d="M0.145,0.008C0.124,0.008 0.105,0 0.09,-0.015C0.074,-0.03 0.067,-0.049 0.067,-0.07C0.067,-0.092 0.074,-0.11 0.09,-0.125C0.105,-0.14 0.124,-0.148 0.145,-0.148C0.166,-0.148 0.184,-0.14 0.2,-0.125C0.215,-0.11 0.223,-0.092 0.223,-0.07C0.223,-0.056 0.219,-0.043 0.212,-0.031C0.205,-0.019 0.195,-0.01 0.184,-0.002C0.172,0.004 0.159,0.008 0.145,0.008Z" style="fill-rule:nonzero;"/>
        </g>
        <g transform="matrix(102,0,0,102,174.922,260)">
        </g>
        <g transform="matrix(102,0,0,102,200.241,260)">
            <path d="M0.559,-0.495C0.553,-0.514 0.545,-0.531 0.534,-0.547C0.524,-0.562 0.512,-0.575 0.498,-0.586C0.483,-0.597 0.467,-0.605 0.449,-0.61C0.43,-0.616 0.41,-0.619 0.388,-0.619C0.349,-0.619 0.314,-0.609 0.284,-0.589C0.253,-0.57 0.229,-0.541 0.212,-0.503C0.194,-0.465 0.186,-0.419 0.186,-0.364C0.186,-0.309 0.194,-0.263 0.212,-0.225C0.229,-0.187 0.253,-0.158 0.284,-0.138C0.315,-0.118 0.35,-0.108 0.391,-0.108C0.428,-0.108 0.46,-0.115 0.487,-0.13C0.514,-0.144 0.535,-0.164 0.55,-0.19C0.564,-0.216 0.572,-0.247 0.572,-0.282L0.602,-0.278L0.404,-0.278L0.404,-0.381L0.699,-0.381L0.699,-0.293C0.699,-0.231 0.686,-0.177 0.659,-0.132C0.633,-0.086 0.596,-0.051 0.55,-0.027C0.504,-0.002 0.45,0.01 0.39,0.01C0.323,0.01 0.264,-0.005 0.214,-0.035C0.163,-0.065 0.124,-0.108 0.096,-0.164C0.067,-0.22 0.053,-0.286 0.053,-0.363C0.053,-0.422 0.062,-0.474 0.078,-0.52C0.095,-0.566 0.118,-0.606 0.148,-0.638C0.179,-0.67 0.214,-0.695 0.254,-0.712C0.295,-0.729 0.339,-0.737 0.386,-0.737C0.427,-0.737 0.464,-0.731 0.499,-0.719C0.534,-0.708 0.565,-0.691 0.592,-0.67C0.619,-0.648 0.641,-0.623 0.659,-0.593C0.676,-0.563 0.688,-0.531 0.693,-0.495L0.559,-0.495Z" style="fill-rule:nonzero;"/>
        </g>
        <g transform="matrix(102,0,0,102,277.248,260)">
            <path d="M0.308,0.011C0.253,0.011 0.206,-0.001 0.166,-0.023C0.126,-0.046 0.096,-0.079 0.075,-0.121C0.053,-0.163 0.043,-0.212 0.043,-0.27C0.043,-0.326 0.053,-0.375 0.075,-0.417C0.096,-0.46 0.126,-0.493 0.165,-0.517C0.203,-0.541 0.249,-0.553 0.301,-0.553C0.334,-0.553 0.366,-0.547 0.396,-0.536C0.426,-0.526 0.453,-0.509 0.475,-0.487C0.499,-0.464 0.517,-0.435 0.53,-0.401C0.543,-0.366 0.55,-0.325 0.55,-0.277L0.55,-0.238L0.103,-0.238L0.103,-0.324L0.427,-0.324C0.427,-0.349 0.421,-0.371 0.411,-0.39C0.4,-0.409 0.386,-0.425 0.367,-0.436C0.349,-0.447 0.327,-0.452 0.303,-0.452C0.276,-0.452 0.253,-0.446 0.233,-0.433C0.213,-0.421 0.198,-0.404 0.187,-0.384C0.176,-0.363 0.17,-0.341 0.17,-0.316L0.17,-0.241C0.17,-0.209 0.176,-0.182 0.188,-0.159C0.199,-0.137 0.215,-0.119 0.236,-0.107C0.257,-0.095 0.281,-0.089 0.309,-0.089C0.328,-0.089 0.345,-0.092 0.36,-0.097C0.375,-0.103 0.388,-0.111 0.4,-0.121C0.411,-0.132 0.419,-0.144 0.425,-0.16L0.545,-0.146C0.537,-0.115 0.523,-0.087 0.501,-0.063C0.48,-0.04 0.453,-0.022 0.42,-0.009C0.388,0.004 0.35,0.011 0.308,0.011Z" style="fill-rule:nonzero;"/>
        </g>
        <g transform="matrix(102,0,0,102,337.702,260)">
            <path d="M0.338,-0.545L0.338,-0.446L0.025,-0.446L0.025,-0.545L0.338,-0.545ZM0.102,-0.676L0.231,-0.676L0.231,-0.164C0.231,-0.147 0.233,-0.134 0.239,-0.124C0.244,-0.115 0.251,-0.109 0.26,-0.106C0.269,-0.103 0.278,-0.101 0.289,-0.101C0.297,-0.101 0.304,-0.101 0.311,-0.103C0.318,-0.104 0.323,-0.105 0.327,-0.106L0.348,-0.005C0.342,-0.003 0.332,-0 0.319,0.002C0.306,0.005 0.291,0.007 0.273,0.007C0.241,0.008 0.212,0.004 0.186,-0.007C0.16,-0.018 0.139,-0.035 0.124,-0.058C0.109,-0.08 0.102,-0.109 0.102,-0.143L0.102,-0.676Z" style="fill-rule:nonzero;"/>
        </g>
        <g transform="matrix(102,0,0,102,376.459,260)">
        </g>
        <g transform="matrix(102,0,0,102,401.778,260)">
            <path d="M0.304,0.011C0.25,0.011 0.203,-0.001 0.164,-0.025C0.125,-0.049 0.095,-0.082 0.074,-0.124C0.053,-0.167 0.043,-0.215 0.043,-0.271C0.043,-0.326 0.053,-0.375 0.075,-0.417C0.096,-0.46 0.126,-0.493 0.165,-0.517C0.204,-0.541 0.25,-0.553 0.303,-0.553C0.348,-0.553 0.387,-0.544 0.421,-0.528C0.455,-0.512 0.482,-0.489 0.503,-0.46C0.523,-0.43 0.535,-0.396 0.538,-0.357L0.415,-0.357C0.41,-0.383 0.398,-0.405 0.379,-0.422C0.361,-0.44 0.336,-0.449 0.305,-0.449C0.279,-0.449 0.256,-0.442 0.236,-0.428C0.216,-0.414 0.2,-0.393 0.189,-0.367C0.178,-0.341 0.173,-0.309 0.173,-0.273C0.173,-0.236 0.178,-0.204 0.189,-0.177C0.2,-0.15 0.215,-0.13 0.235,-0.115C0.255,-0.101 0.278,-0.094 0.305,-0.094C0.324,-0.094 0.341,-0.098 0.356,-0.105C0.371,-0.112 0.384,-0.123 0.394,-0.136C0.404,-0.15 0.411,-0.167 0.415,-0.186L0.538,-0.186C0.535,-0.148 0.523,-0.114 0.504,-0.084C0.484,-0.054 0.457,-0.031 0.423,-0.014C0.389,0.002 0.35,0.011 0.304,0.011Z" style="fill-rule:nonzero;"/>
        </g>
        <g transform="matrix(102,0,0,102,460.674,260)">
            <path d="M0.304,0.011C0.251,0.011 0.205,-0.001 0.165,-0.025C0.126,-0.048 0.096,-0.081 0.075,-0.123C0.053,-0.165 0.043,-0.214 0.043,-0.271C0.043,-0.327 0.053,-0.376 0.075,-0.419C0.096,-0.461 0.126,-0.494 0.165,-0.517C0.205,-0.541 0.251,-0.553 0.304,-0.553C0.357,-0.553 0.403,-0.541 0.442,-0.517C0.482,-0.494 0.512,-0.461 0.533,-0.419C0.555,-0.376 0.565,-0.327 0.565,-0.271C0.565,-0.214 0.555,-0.165 0.533,-0.123C0.512,-0.081 0.482,-0.048 0.442,-0.025C0.403,-0.001 0.357,0.011 0.304,0.011ZM0.305,-0.092C0.334,-0.092 0.358,-0.1 0.377,-0.116C0.397,-0.132 0.411,-0.154 0.42,-0.181C0.43,-0.208 0.435,-0.238 0.435,-0.271C0.435,-0.304 0.43,-0.335 0.42,-0.362C0.411,-0.389 0.397,-0.41 0.377,-0.426C0.358,-0.443 0.334,-0.451 0.305,-0.451C0.275,-0.451 0.25,-0.443 0.231,-0.426C0.211,-0.41 0.197,-0.389 0.187,-0.362C0.178,-0.335 0.173,-0.304 0.173,-0.271C0.173,-0.238 0.178,-0.208 0.187,-0.181C0.197,-0.154 0.211,-0.132 0.231,-0.116C0.25,-0.1 0.275,-0.092 0.305,-0.092Z" style="fill-rule:nonzero;"/>
        </g>
        <g transform="matrix(102,0,0,102,522.685,260)">
            <path d="M0.195,-0.32L0.195,-0L0.066,-0L0.066,-0.545L0.189,-0.545L0.189,-0.453L0.195,-0.453C0.208,-0.483 0.228,-0.508 0.255,-0.526C0.283,-0.544 0.317,-0.553 0.358,-0.553C0.396,-0.553 0.428,-0.545 0.456,-0.528C0.484,-0.512 0.506,-0.489 0.522,-0.458C0.537,-0.428 0.545,-0.391 0.545,-0.347L0.545,-0L0.416,-0L0.416,-0.327C0.416,-0.364 0.407,-0.392 0.388,-0.413C0.369,-0.434 0.343,-0.444 0.31,-0.444C0.288,-0.444 0.268,-0.439 0.25,-0.429C0.233,-0.419 0.219,-0.405 0.209,-0.387C0.199,-0.368 0.195,-0.346 0.195,-0.32Z" style="fill-rule:nonzero;"/>
        </g>
        <g transform="matrix(102,0,0,102,584.878,260)">
            <path d="M0.195,-0.32L0.195,-0L0.066,-0L0.066,-0.545L0.189,-0.545L0.189,-0.453L0.195,-0.453C0.208,-0.483 0.228,-0.508 0.255,-0.526C0.283,-0.544 0.317,-0.553 0.358,-0.553C0.396,-0.553 0.428,-0.545 0.456,-0.528C0.484,-0.512 0.506,-0.489 0.522,-0.458C0.537,-0.428 0.545,-0.391 0.545,-0.347L0.545,-0L0.416,-0L0.416,-0.327C0.416,-0.364 0.407,-0.392 0.388,-0.413C0.369,-0.434 0.343,-0.444 0.31,-0.444C0.288,-0.444 0.268,-0.439 0.25,-0.429C0.233,-0.419 0.219,-0.405 0.209,-0.387C0.199,-0.368 0.195,-0.346 0.195,-0.32Z" style="fill-rule:nonzero;"/>
        </g>
        <g transform="matrix(102,0,0,102,647.07,260)">
            <path d="M0.308,0.011C0.253,0.011 0.206,-0.001 0.166,-0.023C0.126,-0.046 0.096,-0.079 0.075,-0.121C0.053,-0.163 0.043,-0.212 0.043,-0.27C0.043,-0.326 0.053,-0.375 0.075,-0.417C0.096,-0.46 0.126,-0.493 0.165,-0.517C0.203,-0.541 0.249,-0.553 0.301,-0.553C0.334,-0.553 0.366,-0.547 0.396,-0.536C0.426,-0.526 0.453,-0.509 0.475,-0.487C0.499,-0.464 0.517,-0.435 0.53,-0.401C0.543,-0.366 0.55,-0.325 0.55,-0.277L0.55,-0.238L0.103,-0.238L0.103,-0.324L0.427,-0.324C0.427,-0.349 0.421,-0.371 0.411,-0.39C0.4,-0.409 0.386,-0.425 0.367,-0.436C0.349,-0.447 0.327,-0.452 0.303,-0.452C0.276,-0.452 0.253,-0.446 0.233,-0.433C0.213,-0.421 0.198,-0.404 0.187,-0.384C0.176,-0.363 0.17,-0.341 0.17,-0.316L0.17,-0.241C0.17,-0.209 0.176,-0.182 0.188,-0.159C0.199,-0.137 0.215,-0.119 0.236,-0.107C0.257,-0.095 0.281,-0.089 0.309,-0.089C0.328,-0.089 0.345,-0.092 0.36,-0.097C0.375,-0.103 0.388,-0.111 0.4,-0.121C0.411,-0.132 0.419,-0.144 0.425,-0.16L0.545,-0.146C0.537,-0.115 0.523,-0.087 0.501,-0.063C0.48,-0.04 0.453,-0.022 0.42,-0.009C0.388,0.004 0.35,0.011 0.308,0.011Z" style="fill-rule:nonzero;"/>
        </g>
        <g transform="matrix(102,0,0,102,707.524,260)">
            <path d="M0.304,0.011C0.25,0.011 0.203,-0.001 0.164,-0.025C0.125,-0.049 0.095,-0.082 0.074,-0.124C0.053,-0.167 0.043,-0.215 0.043,-0.271C0.043,-0.326 0.053,-0.375 0.075,-0.417C0.096,-0.46 0.126,-0.493 0.165,-0.517C0.204,-0.541 0.25,-0.553 0.303,-0.553C0.348,-0.553 0.387,-0.544 0.421,-0.528C0.455,-0.512 0.482,-0.489 0.503,-0.46C0.523,-0.43 0.535,-0.396 0.538,-0.357L0.415,-0.357C0.41,-0.383 0.398,-0.405 0.379,-0.422C0.361,-0.44 0.336,-0.449 0.305,-0.449C0.279,-0.449 0.256,-0.442 0.236,-0.428C0.216,-0.414 0.2,-0.393 0.189,-0.367C0.178,-0.341 0.173,-0.309 0.173,-0.273C0.173,-0.236 0.178,-0.204 0.189,-0.177C0.2,-0.15 0.215,-0.13 0.235,-0.115C0.255,-0.101 0.278,-0.094 0.305,-0.094C0.324,-0.094 0.341,-0.098 0.356,-0.105C0.371,-0.112 0.384,-0.123 0.394,-0.136C0.404,-0.15 0.411,-0.167 0.415,-0.186L0.538,-0.186C0.535,-0.148 0.523,-0.114 0.504,-0.084C0.484,-0.054 0.457,-0.031 0.423,-0.014C0.389,0.002 0.35,0.011 0.304,0.011Z" style="fill-rule:nonzero;"/>
        </g>
        <g transform="matrix(102,0,0,102,766.42,260)">
            <path d="M0.338,-0.545L0.338,-0.446L0.025,-0.446L0.025,-0.545L0.338,-0.545ZM0.102,-0.676L0.231,-0.676L0.231,-0.164C0.231,-0.147 0.233,-0.134 0.239,-0.124C0.244,-0.115 0.251,-0.109 0.26,-0.106C0.269,-0.103 0.278,-0.101 0.289,-0.101C0.297,-0.101 0.304,-0.101 0.311,-0.103C0.318,-0.104 0.323,-0.105 0.327,-0.106L0.348,-0.005C0.342,-0.003 0.332,-0 0.319,0.002C0.306,0.005 0.291,0.007 0.273,0.007C0.241,0.008 0.212,0.004 0.186,-0.007C0.16,-0.018 0.139,-0.035 0.124,-0.058C0.109,-0.08 0.102,-0.109 0.102,-0.143L0.102,-0.676Z" style="fill-rule:nonzero;"/>
        </g>
        <g transform="matrix(102,0,0,102,805.177,260)">
            <path d="M0.066,-0L0.066,-0.545L0.195,-0.545L0.195,-0L0.066,-0ZM0.131,-0.623C0.11,-0.623 0.093,-0.63 0.078,-0.643C0.063,-0.657 0.056,-0.673 0.056,-0.692C0.056,-0.712 0.063,-0.728 0.078,-0.742C0.093,-0.756 0.11,-0.762 0.131,-0.762C0.151,-0.762 0.169,-0.756 0.183,-0.742C0.198,-0.728 0.205,-0.712 0.205,-0.692C0.205,-0.673 0.198,-0.657 0.183,-0.643C0.169,-0.63 0.151,-0.623 0.131,-0.623Z" style="fill-rule:nonzero;"/>
        </g>
        <g transform="matrix(102,0,0,102,831.764,260)">
            <path d="M0.304,0.011C0.251,0.011 0.205,-0.001 0.165,-0.025C0.126,-0.048 0.096,-0.081 0.075,-0.123C0.053,-0.165 0.043,-0.214 0.043,-0.271C0.043,-0.327 0.053,-0.376 0.075,-0.419C0.096,-0.461 0.126,-0.494 0.165,-0.517C0.205,-0.541 0.251,-0.553 0.304,-0.553C0.357,-0.553 0.403,-0.541 0.442,-0.517C0.482,-0.494 0.512,-0.461 0.533,-0.419C0.555,-0.376 0.565,-0.327 0.565,-0.271C0.565,-0.214 0.555,-0.165 0.533,-0.123C0.512,-0.081 0.482,-0.048 0.442,-0.025C0.403,-0.001 0.357,0.011 0.304,0.011ZM0.305,-0.092C0.334,-0.092 0.358,-0.1 0.377,-0.116C0.397,-0.132 0.411,-0.154 0.42,-0.181C0.43,-0.208 0.435,-0.238 0.435,-0.271C0.435,-0.304 0.43,-0.335 0.42,-0.362C0.411,-0.389 0.397,-0.41 0.377,-0.426C0.358,-0.443 0.334,-0.451 0.305,-0.451C0.275,-0.451 0.25,-0.443 0.231,-0.426C0.211,-0.41 0.197,-0.389 0.187,-0.362C0.178,-0.335 0.173,-0.304 0.173,-0.271C0.173,-0.238 0.178,-0.208 0.187,-0.181C0.197,-0.154 0.211,-0.132 0.231,-0.116C0.25,-0.1 0.275,-0.092 0.305,-0.092Z" style="fill-rule:nonzero;"/>
        </g>
        <g transform="matrix(102,0,0,102,893.776,260)">
            <path d="M0.195,-0.32L0.195,-0L0.066,-0L0.066,-0.545L0.189,-0.545L0.189,-0.453L0.195,-0.453C0.208,-0.483 0.228,-0.508 0.255,-0.526C0.283,-0.544 0.317,-0.553 0.358,-0.553C0.396,-0.553 0.428,-0.545 0.456,-0.528C0.484,-0.512 0.506,-0.489 0.522,-0.458C0.537,-0.428 0.545,-0.391 0.545,-0.347L0.545,-0L0.416,-0L0.416,-0.327C0.416,-0.364 0.407,-0.392 0.388,-0.413C0.369,-0.434 0.343,-0.444 0.31,-0.444C0.288,-0.444 0.268,-0.439 0.25,-0.429C0.233,-0.419 0.219,-0.405 0.209,-0.387C0.199,-0.368 0.195,-0.346 0.195,-0.32Z" style="fill-rule:nonzero;"/>
        </g>
        <g transform="matrix(102,0,0,102,955.968,260)">
        </g>
    </g>
    <g transform="matrix(1,0,0,1,3.53923,646.071)">
        <g transform="matrix(102,0,0,102,81.9048,260)">
            <path d="M0.326,0.01C0.275,0.01 0.229,0.001 0.189,-0.016C0.15,-0.034 0.118,-0.058 0.096,-0.089C0.073,-0.121 0.06,-0.157 0.059,-0.198L0.192,-0.198C0.194,-0.178 0.2,-0.161 0.212,-0.146C0.224,-0.132 0.24,-0.121 0.259,-0.113C0.279,-0.105 0.301,-0.1 0.325,-0.1C0.351,-0.1 0.374,-0.105 0.395,-0.114C0.415,-0.123 0.43,-0.136 0.442,-0.152C0.453,-0.169 0.459,-0.188 0.458,-0.209C0.459,-0.231 0.453,-0.25 0.441,-0.267C0.43,-0.284 0.413,-0.297 0.391,-0.306C0.369,-0.316 0.343,-0.321 0.312,-0.321L0.248,-0.321L0.248,-0.422L0.312,-0.422C0.337,-0.422 0.36,-0.427 0.379,-0.435C0.398,-0.444 0.413,-0.456 0.424,-0.472C0.435,-0.488 0.44,-0.507 0.44,-0.528C0.44,-0.549 0.435,-0.567 0.426,-0.582C0.417,-0.597 0.403,-0.609 0.386,-0.618C0.37,-0.626 0.35,-0.63 0.327,-0.63C0.305,-0.63 0.284,-0.626 0.265,-0.618C0.246,-0.61 0.231,-0.599 0.219,-0.584C0.208,-0.569 0.202,-0.552 0.201,-0.531L0.074,-0.531C0.075,-0.572 0.087,-0.608 0.109,-0.638C0.132,-0.67 0.162,-0.694 0.2,-0.711C0.238,-0.728 0.281,-0.737 0.328,-0.737C0.376,-0.737 0.418,-0.728 0.454,-0.71C0.49,-0.692 0.518,-0.668 0.538,-0.637C0.557,-0.607 0.567,-0.573 0.567,-0.536C0.567,-0.495 0.555,-0.461 0.531,-0.433C0.507,-0.405 0.475,-0.387 0.436,-0.379L0.436,-0.373C0.487,-0.366 0.526,-0.347 0.553,-0.316C0.581,-0.286 0.594,-0.248 0.594,-0.202C0.594,-0.161 0.583,-0.125 0.559,-0.093C0.536,-0.061 0.505,-0.036 0.464,-0.017C0.424,0.001 0.378,0.01 0.326,0.01Z" style="fill-rule:nonzero;"/>
        </g>
        <g transform="matrix(102,0,0,102,146.053,260)">
            <path d="M0.145,0.008C0.124,0.008 0.105,0 0.09,-0.015C0.074,-0.03 0.067,-0.049 0.067,-0.07C0.067,-0.092 0.074,-0.11 0.09,-0.125C0.105,-0.14 0.124,-0.148 0.145,-0.148C0.166,-0.148 0.184,-0.14 0.2,-0.125C0.215,-0.11 0.223,-0.092 0.223,-0.07C0.223,-0.056 0.219,-0.043 0.212,-0.031C0.205,-0.019 0.195,-0.01 0.184,-0.002C0.172,0.004 0.159,0.008 0.145,0.008Z" style="fill-rule:nonzero;"/>
        </g>
        <g transform="matrix(102,0,0,102,175.682,260)">
        </g>
    </g>
    <g transform="matrix(1,0,0,1,-4,8.63885)">
        <g transform="matrix(1.07417,0,0,1,-47.5362,-9.11504)">
            <path d="M987.619,825.571L987.619,904.905C987.619,914.287 980.528,921.905 971.793,921.905L258.683,921.905C249.949,921.905 242.857,914.287 242.857,904.905L242.857,825.571C242.857,816.189 249.949,808.571 258.683,808.571L971.793,808.571C980.528,808.571 987.619,816.189 987.619,825.571Z" style="fill:rgb(19,20,62);stroke:black;stroke-width:2.07px;"/>
        </g>
        <g transform="matrix(1,0,0,1,-1.13687e-13,69.9305)">
            <g transform="matrix(48,0,0,48,239.048,819.048)">
                <path d="M0.299,0.091L0.299,-0.818L0.357,-0.818L0.357,0.091L0.299,0.091ZM0.467,-0.527C0.464,-0.558 0.45,-0.583 0.425,-0.6C0.401,-0.617 0.369,-0.626 0.33,-0.626C0.302,-0.626 0.279,-0.622 0.259,-0.613C0.24,-0.605 0.225,-0.594 0.214,-0.58C0.204,-0.565 0.198,-0.549 0.198,-0.531C0.198,-0.516 0.202,-0.503 0.208,-0.491C0.216,-0.48 0.225,-0.471 0.237,-0.463C0.249,-0.455 0.263,-0.449 0.277,-0.444C0.292,-0.439 0.307,-0.434 0.322,-0.431L0.39,-0.414C0.417,-0.407 0.444,-0.399 0.469,-0.388C0.495,-0.377 0.518,-0.363 0.538,-0.347C0.558,-0.33 0.574,-0.31 0.586,-0.287C0.598,-0.263 0.604,-0.236 0.604,-0.204C0.604,-0.162 0.593,-0.124 0.571,-0.092C0.549,-0.059 0.518,-0.034 0.477,-0.016C0.436,0.002 0.386,0.011 0.328,0.011C0.271,0.011 0.222,0.002 0.18,-0.015C0.139,-0.033 0.107,-0.058 0.083,-0.092C0.06,-0.126 0.047,-0.167 0.045,-0.215L0.175,-0.215C0.177,-0.19 0.185,-0.168 0.199,-0.152C0.212,-0.135 0.23,-0.122 0.252,-0.114C0.274,-0.106 0.299,-0.102 0.327,-0.102C0.355,-0.102 0.38,-0.106 0.402,-0.114C0.424,-0.123 0.441,-0.135 0.453,-0.151C0.465,-0.166 0.472,-0.184 0.472,-0.205C0.472,-0.224 0.466,-0.24 0.455,-0.252C0.444,-0.265 0.429,-0.275 0.409,-0.283C0.39,-0.292 0.367,-0.299 0.341,-0.306L0.259,-0.327C0.199,-0.343 0.151,-0.366 0.116,-0.397C0.082,-0.429 0.065,-0.471 0.065,-0.523C0.065,-0.566 0.076,-0.603 0.099,-0.635C0.123,-0.667 0.155,-0.692 0.195,-0.71C0.235,-0.728 0.281,-0.737 0.332,-0.737C0.383,-0.737 0.429,-0.728 0.467,-0.71C0.506,-0.692 0.537,-0.668 0.559,-0.636C0.582,-0.605 0.593,-0.568 0.594,-0.527L0.467,-0.527Z" style="fill:white;fill-rule:nonzero;"/>
            </g>
            <g transform="matrix(48,0,0,48,270.207,819.048)">
            </g>
            <g transform="matrix(48,0,0,48,282.121,819.048)">
                <path d="M0.179,-0L0.025,-0.545L0.156,-0.545L0.251,-0.162L0.256,-0.162L0.354,-0.545L0.484,-0.545L0.582,-0.164L0.587,-0.164L0.682,-0.545L0.813,-0.545L0.659,-0L0.525,-0L0.423,-0.369L0.415,-0.369L0.313,-0L0.179,-0Z" style="fill:white;fill-rule:nonzero;"/>
            </g>
            <g transform="matrix(48,0,0,48,322.315,819.048)">
                <path d="M0.497,-0.401L0.38,-0.388C0.377,-0.4 0.371,-0.411 0.363,-0.422C0.355,-0.432 0.344,-0.441 0.33,-0.447C0.316,-0.453 0.299,-0.457 0.279,-0.457C0.253,-0.457 0.23,-0.451 0.212,-0.439C0.194,-0.428 0.185,-0.413 0.185,-0.394C0.185,-0.378 0.191,-0.365 0.203,-0.355C0.215,-0.346 0.235,-0.337 0.262,-0.331L0.355,-0.311C0.407,-0.3 0.445,-0.282 0.471,-0.258C0.496,-0.234 0.509,-0.202 0.509,-0.163C0.509,-0.129 0.499,-0.099 0.479,-0.072C0.459,-0.046 0.432,-0.026 0.397,-0.011C0.362,0.003 0.321,0.011 0.276,0.011C0.209,0.011 0.155,-0.003 0.115,-0.031C0.074,-0.059 0.05,-0.099 0.042,-0.149L0.167,-0.161C0.173,-0.136 0.185,-0.118 0.203,-0.105C0.222,-0.093 0.246,-0.086 0.276,-0.086C0.306,-0.086 0.331,-0.093 0.349,-0.105C0.368,-0.118 0.377,-0.133 0.377,-0.152C0.377,-0.167 0.371,-0.18 0.359,-0.19C0.347,-0.201 0.329,-0.208 0.304,-0.214L0.211,-0.233C0.158,-0.244 0.12,-0.263 0.094,-0.288C0.069,-0.314 0.057,-0.347 0.057,-0.387C0.057,-0.421 0.066,-0.45 0.085,-0.474C0.103,-0.499 0.129,-0.518 0.162,-0.532C0.196,-0.546 0.234,-0.553 0.278,-0.553C0.342,-0.553 0.392,-0.539 0.429,-0.512C0.466,-0.484 0.488,-0.448 0.497,-0.401Z" style="fill:white;fill-rule:nonzero;"/>
            </g>
            <g transform="matrix(48,0,0,48,348.667,819.048)">
                <path d="M0.304,0.011C0.25,0.011 0.203,-0.001 0.164,-0.025C0.125,-0.049 0.095,-0.082 0.074,-0.124C0.053,-0.167 0.043,-0.215 0.043,-0.271C0.043,-0.326 0.053,-0.375 0.075,-0.417C0.096,-0.46 0.126,-0.493 0.165,-0.517C0.204,-0.541 0.25,-0.553 0.303,-0.553C0.348,-0.553 0.387,-0.544 0.421,-0.528C0.455,-0.512 0.482,-0.489 0.503,-0.46C0.523,-0.43 0.535,-0.396 0.538,-0.357L0.415,-0.357C0.41,-0.383 0.398,-0.405 0.379,-0.422C0.361,-0.44 0.336,-0.449 0.305,-0.449C0.279,-0.449 0.256,-0.442 0.236,-0.428C0.216,-0.414 0.2,-0.393 0.189,-0.367C0.178,-0.341 0.173,-0.309 0.173,-0.273C0.173,-0.236 0.178,-0.204 0.189,-0.177C0.2,-0.15 0.215,-0.13 0.235,-0.115C0.255,-0.101 0.278,-0.094 0.305,-0.094C0.324,-0.094 0.341,-0.098 0.356,-0.105C0.371,-0.112 0.384,-0.123 0.394,-0.136C0.404,-0.15 0.411,-0.167 0.415,-0.186L0.538,-0.186C0.535,-0.148 0.523,-0.114 0.504,-0.084C0.484,-0.054 0.457,-0.031 0.423,-0.014C0.389,0.002 0.35,0.011 0.304,0.011Z" style="fill:white;fill-rule:nonzero;"/>
            </g>
            <g transform="matrix(48,0,0,48,376.383,819.048)">
                <path d="M0.223,0.011C0.188,0.011 0.157,0.005 0.13,-0.007C0.102,-0.02 0.08,-0.038 0.064,-0.063C0.048,-0.087 0.04,-0.117 0.04,-0.153C0.04,-0.184 0.046,-0.209 0.058,-0.229C0.069,-0.25 0.084,-0.266 0.104,-0.278C0.124,-0.29 0.146,-0.299 0.17,-0.305C0.195,-0.311 0.221,-0.316 0.248,-0.319C0.279,-0.322 0.305,-0.325 0.325,-0.328C0.345,-0.331 0.36,-0.335 0.369,-0.341C0.378,-0.346 0.382,-0.356 0.382,-0.368L0.382,-0.37C0.382,-0.397 0.375,-0.417 0.359,-0.432C0.343,-0.447 0.32,-0.454 0.29,-0.454C0.259,-0.454 0.234,-0.447 0.215,-0.434C0.197,-0.42 0.185,-0.404 0.178,-0.385L0.058,-0.402C0.068,-0.435 0.083,-0.463 0.105,-0.485C0.127,-0.508 0.154,-0.524 0.185,-0.536C0.217,-0.547 0.251,-0.553 0.289,-0.553C0.316,-0.553 0.342,-0.549 0.368,-0.543C0.394,-0.537 0.418,-0.527 0.439,-0.513C0.461,-0.499 0.478,-0.48 0.491,-0.456C0.504,-0.431 0.511,-0.401 0.511,-0.365L0.511,-0L0.387,-0L0.387,-0.075L0.383,-0.075C0.375,-0.06 0.364,-0.046 0.35,-0.032C0.336,-0.019 0.319,-0.009 0.297,-0.001C0.276,0.007 0.251,0.011 0.223,0.011ZM0.256,-0.083C0.282,-0.083 0.305,-0.089 0.324,-0.099C0.342,-0.109 0.357,-0.123 0.367,-0.14C0.378,-0.157 0.383,-0.176 0.383,-0.196L0.383,-0.26C0.379,-0.257 0.372,-0.254 0.362,-0.251C0.353,-0.248 0.342,-0.245 0.33,-0.243C0.318,-0.241 0.307,-0.239 0.295,-0.238C0.283,-0.236 0.273,-0.234 0.265,-0.233C0.246,-0.231 0.229,-0.226 0.213,-0.221C0.198,-0.215 0.186,-0.206 0.178,-0.196C0.169,-0.185 0.164,-0.172 0.164,-0.155C0.164,-0.132 0.173,-0.114 0.19,-0.102C0.208,-0.089 0.23,-0.083 0.256,-0.083Z" style="fill:white;fill-rule:nonzero;"/>
            </g>
            <g transform="matrix(48,0,0,48,403.962,819.048)">
                <path d="M0.338,-0.545L0.338,-0.446L0.025,-0.446L0.025,-0.545L0.338,-0.545ZM0.102,-0.676L0.231,-0.676L0.231,-0.164C0.231,-0.147 0.233,-0.134 0.239,-0.124C0.244,-0.115 0.251,-0.109 0.26,-0.106C0.269,-0.103 0.278,-0.101 0.289,-0.101C0.297,-0.101 0.304,-0.101 0.311,-0.103C0.318,-0.104 0.323,-0.105 0.327,-0.106L0.348,-0.005C0.342,-0.003 0.332,-0 0.319,0.002C0.306,0.005 0.291,0.007 0.273,0.007C0.241,0.008 0.212,0.004 0.186,-0.007C0.16,-0.018 0.139,-0.035 0.124,-0.058C0.109,-0.08 0.102,-0.109 0.102,-0.143L0.102,-0.676Z" style="fill:white;fill-rule:nonzero;"/>
            </g>
            <g transform="matrix(48,0,0,48,422.201,819.048)">
            </g>
            <g transform="matrix(48,0,0,48,434.116,819.048)">
                <rect x="0.069" y="-0.356" width="0.327" height="0.106" style="fill:white;fill-rule:nonzero;"/>
            </g>
            <g transform="matrix(48,0,0,48,456.479,819.048)">
                <path d="M0.304,0.011C0.25,0.011 0.203,-0.001 0.164,-0.025C0.125,-0.049 0.095,-0.082 0.074,-0.124C0.053,-0.167 0.043,-0.215 0.043,-0.271C0.043,-0.326 0.053,-0.375 0.075,-0.417C0.096,-0.46 0.126,-0.493 0.165,-0.517C0.204,-0.541 0.25,-0.553 0.303,-0.553C0.348,-0.553 0.387,-0.544 0.421,-0.528C0.455,-0.512 0.482,-0.489 0.503,-0.46C0.523,-0.43 0.535,-0.396 0.538,-0.357L0.415,-0.357C0.41,-0.383 0.398,-0.405 0.379,-0.422C0.361,-0.44 0.336,-0.449 0.305,-0.449C0.279,-0.449 0.256,-0.442 0.236,-0.428C0.216,-0.414 0.2,-0.393 0.189,-0.367C0.178,-0.341 0.173,-0.309 0.173,-0.273C0.173,-0.236 0.178,-0.204 0.189,-0.177C0.2,-0.15 0.215,-0.13 0.235,-0.115C0.255,-0.101 0.278,-0.094 0.305,-0.094C0.324,-0.094 0.341,-0.098 0.356,-0.105C0.371,-0.112 0.384,-0.123 0.394,-0.136C0.404,-0.15 0.411,-0.167 0.415,-0.186L0.538,-0.186C0.535,-0.148 0.523,-0.114 0.504,-0.084C0.484,-0.054 0.457,-0.031 0.423,-0.014C0.389,0.002 0.35,0.011 0.304,0.011Z" style="fill:white;fill-rule:nonzero;"/>
            </g>
            <g transform="matrix(48,0,0,48,484.195,819.048)">
            </g>
            <g transform="matrix(48,0,0,48,496.11,819.048)">
                <path d="M0.179,-0L0.025,-0.545L0.156,-0.545L0.251,-0.162L0.256,-0.162L0.354,-0.545L0.484,-0.545L0.582,-0.164L0.587,-0.164L0.682,-0.545L0.813,-0.545L0.659,-0L0.525,-0L0.423,-0.369L0.415,-0.369L0.313,-0L0.179,-0Z" style="fill:white;fill-rule:nonzero;"/>
            </g>
            <g transform="matrix(48,0,0,48,536.303,819.048)">
                <path d="M0.497,-0.401L0.38,-0.388C0.377,-0.4 0.371,-0.411 0.363,-0.422C0.355,-0.432 0.344,-0.441 0.33,-0.447C0.316,-0.453 0.299,-0.457 0.279,-0.457C0.253,-0.457 0.23,-0.451 0.212,-0.439C0.194,-0.428 0.185,-0.413 0.185,-0.394C0.185,-0.378 0.191,-0.365 0.203,-0.355C0.215,-0.346 0.235,-0.337 0.262,-0.331L0.355,-0.311C0.407,-0.3 0.445,-0.282 0.471,-0.258C0.496,-0.234 0.509,-0.202 0.509,-0.163C0.509,-0.129 0.499,-0.099 0.479,-0.072C0.459,-0.046 0.432,-0.026 0.397,-0.011C0.362,0.003 0.321,0.011 0.276,0.011C0.209,0.011 0.155,-0.003 0.115,-0.031C0.074,-0.059 0.05,-0.099 0.042,-0.149L0.167,-0.161C0.173,-0.136 0.185,-0.118 0.203,-0.105C0.222,-0.093 0.246,-0.086 0.276,-0.086C0.306,-0.086 0.331,-0.093 0.349,-0.105C0.368,-0.118 0.377,-0.133 0.377,-0.152C0.377,-0.167 0.371,-0.18 0.359,-0.19C0.347,-0.201 0.329,-0.208 0.304,-0.214L0.211,-0.233C0.158,-0.244 0.12,-0.263 0.094,-0.288C0.069,-0.314 0.057,-0.347 0.057,-0.387C0.057,-0.421 0.066,-0.45 0.085,-0.474C0.103,-0.499 0.129,-0.518 0.162,-0.532C0.196,-0.546 0.234,-0.553 0.278,-0.553C0.342,-0.553 0.392,-0.539 0.429,-0.512C0.466,-0.484 0.488,-0.448 0.497,-0.401Z" style="fill:white;fill-rule:nonzero;"/>
            </g>
            <g transform="matrix(48,0,0,48,562.656,819.048)">
                <path d="M0.497,-0.401L0.38,-0.388C0.377,-0.4 0.371,-0.411 0.363,-0.422C0.355,-0.432 0.344,-0.441 0.33,-0.447C0.316,-0.453 0.299,-0.457 0.279,-0.457C0.253,-0.457 0.23,-0.451 0.212,-0.439C0.194,-0.428 0.185,-0.413 0.185,-0.394C0.185,-0.378 0.191,-0.365 0.203,-0.355C0.215,-0.346 0.235,-0.337 0.262,-0.331L0.355,-0.311C0.407,-0.3 0.445,-0.282 0.471,-0.258C0.496,-0.234 0.509,-0.202 0.509,-0.163C0.509,-0.129 0.499,-0.099 0.479,-0.072C0.459,-0.046 0.432,-0.026 0.397,-0.011C0.362,0.003 0.321,0.011 0.276,0.011C0.209,0.011 0.155,-0.003 0.115,-0.031C0.074,-0.059 0.05,-0.099 0.042,-0.149L0.167,-0.161C0.173,-0.136 0.185,-0.118 0.203,-0.105C0.222,-0.093 0.246,-0.086 0.276,-0.086C0.306,-0.086 0.331,-0.093 0.349,-0.105C0.368,-0.118 0.377,-0.133 0.377,-0.152C0.377,-0.167 0.371,-0.18 0.359,-0.19C0.347,-0.201 0.329,-0.208 0.304,-0.214L0.211,-0.233C0.158,-0.244 0.12,-0.263 0.094,-0.288C0.069,-0.314 0.057,-0.347 0.057,-0.387C0.057,-0.421 0.066,-0.45 0.085,-0.474C0.103,-0.499 0.129,-0.518 0.162,-0.532C0.196,-0.546 0.234,-0.553 0.278,-0.553C0.342,-0.553 0.392,-0.539 0.429,-0.512C0.466,-0.484 0.488,-0.448 0.497,-0.401Z" style="fill:white;fill-rule:nonzero;"/>
            </g>
            <g transform="matrix(48,0,0,48,589.008,819.048)">
                <path d="M0.145,0.008C0.124,0.008 0.105,0 0.09,-0.015C0.074,-0.03 0.067,-0.049 0.067,-0.07C0.067,-0.092 0.074,-0.11 0.09,-0.125C0.105,-0.14 0.124,-0.148 0.145,-0.148C0.166,-0.148 0.184,-0.14 0.2,-0.125C0.215,-0.11 0.223,-0.092 0.223,-0.07C0.223,-0.056 0.219,-0.043 0.212,-0.031C0.205,-0.019 0.195,-0.01 0.184,-0.002C0.172,0.004 0.159,0.008 0.145,0.008ZM0.145,-0.381C0.124,-0.381 0.105,-0.389 0.09,-0.404C0.074,-0.42 0.067,-0.438 0.067,-0.46C0.067,-0.481 0.074,-0.499 0.09,-0.514C0.105,-0.53 0.124,-0.537 0.145,-0.537C0.166,-0.537 0.184,-0.53 0.2,-0.514C0.215,-0.499 0.223,-0.481 0.223,-0.46C0.223,-0.445 0.219,-0.432 0.212,-0.42C0.205,-0.409 0.195,-0.399 0.184,-0.392C0.172,-0.385 0.159,-0.381 0.145,-0.381Z" style="fill:white;fill-rule:nonzero;"/>
            </g>
            <g transform="matrix(48,0,0,48,602.951,819.048)">
                <path d="M0.363,-0.761L0.129,0.109L0.016,0.109L0.25,-0.761L0.363,-0.761Z" style="fill:white;fill-rule:nonzero;"/>
            </g>
            <g transform="matrix(48,0,0,48,621.121,819.048)">
                <path d="M0.363,-0.761L0.129,0.109L0.016,0.109L0.25,-0.761L0.363,-0.761Z" style="fill:white;fill-rule:nonzero;"/>
            </g>
            <g transform="matrix(48,0,0,48,639.292,819.048)">
                <path d="M0.497,-0.401L0.38,-0.388C0.377,-0.4 0.371,-0.411 0.363,-0.422C0.355,-0.432 0.344,-0.441 0.33,-0.447C0.316,-0.453 0.299,-0.457 0.279,-0.457C0.253,-0.457 0.23,-0.451 0.212,-0.439C0.194,-0.428 0.185,-0.413 0.185,-0.394C0.185,-0.378 0.191,-0.365 0.203,-0.355C0.215,-0.346 0.235,-0.337 0.262,-0.331L0.355,-0.311C0.407,-0.3 0.445,-0.282 0.471,-0.258C0.496,-0.234 0.509,-0.202 0.509,-0.163C0.509,-0.129 0.499,-0.099 0.479,-0.072C0.459,-0.046 0.432,-0.026 0.397,-0.011C0.362,0.003 0.321,0.011 0.276,0.011C0.209,0.011 0.155,-0.003 0.115,-0.031C0.074,-0.059 0.05,-0.099 0.042,-0.149L0.167,-0.161C0.173,-0.136 0.185,-0.118 0.203,-0.105C0.222,-0.093 0.246,-0.086 0.276,-0.086C0.306,-0.086 0.331,-0.093 0.349,-0.105C0.368,-0.118 0.377,-0.133 0.377,-0.152C0.377,-0.167 0.371,-0.18 0.359,-0.19C0.347,-0.201 0.329,-0.208 0.304,-0.214L0.211,-0.233C0.158,-0.244 0.12,-0.263 0.094,-0.288C0.069,-0.314 0.057,-0.347 0.057,-0.387C0.057,-0.421 0.066,-0.45 0.085,-0.474C0.103,-0.499 0.129,-0.518 0.162,-0.532C0.196,-0.546 0.234,-0.553 0.278,-0.553C0.342,-0.553 0.392,-0.539 0.429,-0.512C0.466,-0.484 0.488,-0.448 0.497,-0.401Z" style="fill:white;fill-rule:nonzero;"/>
            </g>
            <g transform="matrix(48,0,0,48,665.644,819.048)">
                <path d="M0.304,0.011C0.251,0.011 0.205,-0.001 0.165,-0.025C0.126,-0.048 0.096,-0.081 0.075,-0.123C0.053,-0.165 0.043,-0.214 0.043,-0.271C0.043,-0.327 0.053,-0.376 0.075,-0.419C0.096,-0.461 0.126,-0.494 0.165,-0.517C0.205,-0.541 0.251,-0.553 0.304,-0.553C0.357,-0.553 0.403,-0.541 0.442,-0.517C0.482,-0.494 0.512,-0.461 0.533,-0.419C0.555,-0.376 0.565,-0.327 0.565,-0.271C0.565,-0.214 0.555,-0.165 0.533,-0.123C0.512,-0.081 0.482,-0.048 0.442,-0.025C0.403,-0.001 0.357,0.011 0.304,0.011ZM0.305,-0.092C0.334,-0.092 0.358,-0.1 0.377,-0.116C0.397,-0.132 0.411,-0.154 0.42,-0.181C0.43,-0.208 0.435,-0.238 0.435,-0.271C0.435,-0.304 0.43,-0.335 0.42,-0.362C0.411,-0.389 0.397,-0.41 0.377,-0.426C0.358,-0.443 0.334,-0.451 0.305,-0.451C0.275,-0.451 0.25,-0.443 0.231,-0.426C0.211,-0.41 0.197,-0.389 0.187,-0.362C0.178,-0.335 0.173,-0.304 0.173,-0.271C0.173,-0.238 0.178,-0.208 0.187,-0.181C0.197,-0.154 0.211,-0.132 0.231,-0.116C0.25,-0.1 0.275,-0.092 0.305,-0.092Z" style="fill:white;fill-rule:nonzero;"/>
            </g>
            <g transform="matrix(48,0,0,48,694.826,819.048)">
                <path d="M0.304,0.011C0.25,0.011 0.203,-0.001 0.164,-0.025C0.125,-0.049 0.095,-0.082 0.074,-0.124C0.053,-0.167 0.043,-0.215 0.043,-0.271C0.043,-0.326 0.053,-0.375 0.075,-0.417C0.096,-0.46 0.126,-0.493 0.165,-0.517C0.204,-0.541 0.25,-0.553 0.303,-0.553C0.348,-0.553 0.387,-0.544 0.421,-0.528C0.455,-0.512 0.482,-0.489 0.503,-0.46C0.523,-0.43 0.535,-0.396 0.538,-0.357L0.415,-0.357C0.41,-0.383 0.398,-0.405 0.379,-0.422C0.361,-0.44 0.336,-0.449 0.305,-0.449C0.279,-0.449 0.256,-0.442 0.236,-0.428C0.216,-0.414 0.2,-0.393 0.189,-0.367C0.178,-0.341 0.173,-0.309 0.173,-0.273C0.173,-0.236 0.178,-0.204 0.189,-0.177C0.2,-0.15 0.215,-0.13 0.235,-0.115C0.255,-0.101 0.278,-0.094 0.305,-0.094C0.324,-0.094 0.341,-0.098 0.356,-0.105C0.371,-0.112 0.384,-0.123 0.394,-0.136C0.404,-0.15 0.411,-0.167 0.415,-0.186L0.538,-0.186C0.535,-0.148 0.523,-0.114 0.504,-0.084C0.484,-0.054 0.457,-0.031 0.423,-0.014C0.389,0.002 0.35,0.011 0.304,0.011Z" style="fill:white;fill-rule:nonzero;"/>
            </g>
            <g transform="matrix(48,0,0,48,722.542,819.048)">
                <path d="M0.183,-0.171L0.183,-0.326L0.203,-0.326L0.4,-0.545L0.55,-0.545L0.309,-0.277L0.282,-0.277L0.183,-0.171ZM0.066,-0L0.066,-0.727L0.195,-0.727L0.195,-0L0.066,-0ZM0.408,-0L0.231,-0.248L0.317,-0.339L0.562,-0L0.408,-0Z" style="fill:white;fill-rule:nonzero;"/>
            </g>
            <g transform="matrix(48,0,0,48,748.758,819.048)">
                <path d="M0.308,0.011C0.253,0.011 0.206,-0.001 0.166,-0.023C0.126,-0.046 0.096,-0.079 0.075,-0.121C0.053,-0.163 0.043,-0.212 0.043,-0.27C0.043,-0.326 0.053,-0.375 0.075,-0.417C0.096,-0.46 0.126,-0.493 0.165,-0.517C0.203,-0.541 0.249,-0.553 0.301,-0.553C0.334,-0.553 0.366,-0.547 0.396,-0.536C0.426,-0.526 0.453,-0.509 0.475,-0.487C0.499,-0.464 0.517,-0.435 0.53,-0.401C0.543,-0.366 0.55,-0.325 0.55,-0.277L0.55,-0.238L0.103,-0.238L0.103,-0.324L0.427,-0.324C0.427,-0.349 0.421,-0.371 0.411,-0.39C0.4,-0.409 0.386,-0.425 0.367,-0.436C0.349,-0.447 0.327,-0.452 0.303,-0.452C0.276,-0.452 0.253,-0.446 0.233,-0.433C0.213,-0.421 0.198,-0.404 0.187,-0.384C0.176,-0.363 0.17,-0.341 0.17,-0.316L0.17,-0.241C0.17,-0.209 0.176,-0.182 0.188,-0.159C0.199,-0.137 0.215,-0.119 0.236,-0.107C0.257,-0.095 0.281,-0.089 0.309,-0.089C0.328,-0.089 0.345,-0.092 0.36,-0.097C0.375,-0.103 0.388,-0.111 0.4,-0.121C0.411,-0.132 0.419,-0.144 0.425,-0.16L0.545,-0.146C0.537,-0.115 0.523,-0.087 0.501,-0.063C0.48,-0.04 0.453,-0.022 0.42,-0.009C0.388,0.004 0.35,0.011 0.308,0.011Z" style="fill:white;fill-rule:nonzero;"/>
            </g>
            <g transform="matrix(48,0,0,48,777.207,819.048)">
                <path d="M0.338,-0.545L0.338,-0.446L0.025,-0.446L0.025,-0.545L0.338,-0.545ZM0.102,-0.676L0.231,-0.676L0.231,-0.164C0.231,-0.147 0.233,-0.134 0.239,-0.124C0.244,-0.115 0.251,-0.109 0.26,-0.106C0.269,-0.103 0.278,-0.101 0.289,-0.101C0.297,-0.101 0.304,-0.101 0.311,-0.103C0.318,-0.104 0.323,-0.105 0.327,-0.106L0.348,-0.005C0.342,-0.003 0.332,-0 0.319,0.002C0.306,0.005 0.291,0.007 0.273,0.007C0.241,0.008 0.212,0.004 0.186,-0.007C0.16,-0.018 0.139,-0.035 0.124,-0.058C0.109,-0.08 0.102,-0.109 0.102,-0.143L0.102,-0.676Z" style="fill:white;fill-rule:nonzero;"/>
            </g>
            <g transform="matrix(48,0,0,48,795.991,819.048)">
                <rect x="0.066" y="-0.727" width="0.129" height="0.727" style="fill:white;fill-rule:nonzero;"/>
            </g>
            <g transform="matrix(48,0,0,48,808.502,819.048)">
                <path d="M0.308,0.011C0.253,0.011 0.206,-0.001 0.166,-0.023C0.126,-0.046 0.096,-0.079 0.075,-0.121C0.053,-0.163 0.043,-0.212 0.043,-0.27C0.043,-0.326 0.053,-0.375 0.075,-0.417C0.096,-0.46 0.126,-0.493 0.165,-0.517C0.203,-0.541 0.249,-0.553 0.301,-0.553C0.334,-0.553 0.366,-0.547 0.396,-0.536C0.426,-0.526 0.453,-0.509 0.475,-0.487C0.499,-0.464 0.517,-0.435 0.53,-0.401C0.543,-0.366 0.55,-0.325 0.55,-0.277L0.55,-0.238L0.103,-0.238L0.103,-0.324L0.427,-0.324C0.427,-0.349 0.421,-0.371 0.411,-0.39C0.4,-0.409 0.386,-0.425 0.367,-0.436C0.349,-0.447 0.327,-0.452 0.303,-0.452C0.276,-0.452 0.253,-0.446 0.233,-0.433C0.213,-0.421 0.198,-0.404 0.187,-0.384C0.176,-0.363 0.17,-0.341 0.17,-0.316L0.17,-0.241C0.17,-0.209 0.176,-0.182 0.188,-0.159C0.199,-0.137 0.215,-0.119 0.236,-0.107C0.257,-0.095 0.281,-0.089 0.309,-0.089C0.328,-0.089 0.345,-0.092 0.36,-0.097C0.375,-0.103 0.388,-0.111 0.4,-0.121C0.411,-0.132 0.419,-0.144 0.425,-0.16L0.545,-0.146C0.537,-0.115 0.523,-0.087 0.501,-0.063C0.48,-0.04 0.453,-0.022 0.42,-0.009C0.388,0.004 0.35,0.011 0.308,0.011Z" style="fill:white;fill-rule:nonzero;"/>
            </g>
            <g transform="matrix(48,0,0,48,836.951,819.048)">
                <path d="M0.497,-0.401L0.38,-0.388C0.377,-0.4 0.371,-0.411 0.363,-0.422C0.355,-0.432 0.344,-0.441 0.33,-0.447C0.316,-0.453 0.299,-0.457 0.279,-0.457C0.253,-0.457 0.23,-0.451 0.212,-0.439C0.194,-0.428 0.185,-0.413 0.185,-0.394C0.185,-0.378 0.191,-0.365 0.203,-0.355C0.215,-0.346 0.235,-0.337 0.262,-0.331L0.355,-0.311C0.407,-0.3 0.445,-0.282 0.471,-0.258C0.496,-0.234 0.509,-0.202 0.509,-0.163C0.509,-0.129 0.499,-0.099 0.479,-0.072C0.459,-0.046 0.432,-0.026 0.397,-0.011C0.362,0.003 0.321,0.011 0.276,0.011C0.209,0.011 0.155,-0.003 0.115,-0.031C0.074,-0.059 0.05,-0.099 0.042,-0.149L0.167,-0.161C0.173,-0.136 0.185,-0.118 0.203,-0.105C0.222,-0.093 0.246,-0.086 0.276,-0.086C0.306,-0.086 0.331,-0.093 0.349,-0.105C0.368,-0.118 0.377,-0.133 0.377,-0.152C0.377,-0.167 0.371,-0.18 0.359,-0.19C0.347,-0.201 0.329,-0.208 0.304,-0.214L0.211,-0.233C0.158,-0.244 0.12,-0.263 0.094,-0.288C0.069,-0.314 0.057,-0.347 0.057,-0.387C0.057,-0.421 0.066,-0.45 0.085,-0.474C0.103,-0.499 0.129,-0.518 0.162,-0.532C0.196,-0.546 0.234,-0.553 0.278,-0.553C0.342,-0.553 0.392,-0.539 0.429,-0.512C0.466,-0.484 0.488,-0.448 0.497,-0.401Z" style="fill:white;fill-rule:nonzero;"/>
            </g>
            <g transform="matrix(48,0,0,48,863.303,819.048)">
                <path d="M0.497,-0.401L0.38,-0.388C0.377,-0.4 0.371,-0.411 0.363,-0.422C0.355,-0.432 0.344,-0.441 0.33,-0.447C0.316,-0.453 0.299,-0.457 0.279,-0.457C0.253,-0.457 0.23,-0.451 0.212,-0.439C0.194,-0.428 0.185,-0.413 0.185,-0.394C0.185,-0.378 0.191,-0.365 0.203,-0.355C0.215,-0.346 0.235,-0.337 0.262,-0.331L0.355,-0.311C0.407,-0.3 0.445,-0.282 0.471,-0.258C0.496,-0.234 0.509,-0.202 0.509,-0.163C0.509,-0.129 0.499,-0.099 0.479,-0.072C0.459,-0.046 0.432,-0.026 0.397,-0.011C0.362,0.003 0.321,0.011 0.276,0.011C0.209,0.011 0.155,-0.003 0.115,-0.031C0.074,-0.059 0.05,-0.099 0.042,-0.149L0.167,-0.161C0.173,-0.136 0.185,-0.118 0.203,-0.105C0.222,-0.093 0.246,-0.086 0.276,-0.086C0.306,-0.086 0.331,-0.093 0.349,-0.105C0.368,-0.118 0.377,-0.133 0.377,-0.152C0.377,-0.167 0.371,-0.18 0.359,-0.19C0.347,-0.201 0.329,-0.208 0.304,-0.214L0.211,-0.233C0.158,-0.244 0.12,-0.263 0.094,-0.288C0.069,-0.314 0.057,-0.347 0.057,-0.387C0.057,-0.421 0.066,-0.45 0.085,-0.474C0.103,-0.499 0.129,-0.518 0.162,-0.532C0.196,-0.546 0.234,-0.553 0.278,-0.553C0.342,-0.553 0.392,-0.539 0.429,-0.512C0.466,-0.484 0.488,-0.448 0.497,-0.401Z" style="fill:white;fill-rule:nonzero;"/>
            </g>
            <g transform="matrix(48,0,0,48,889.656,819.048)">
                <path d="M0.145,0.008C0.124,0.008 0.105,0 0.09,-0.015C0.074,-0.03 0.067,-0.049 0.067,-0.07C0.067,-0.092 0.074,-0.11 0.09,-0.125C0.105,-0.14 0.124,-0.148 0.145,-0.148C0.166,-0.148 0.184,-0.14 0.2,-0.125C0.215,-0.11 0.223,-0.092 0.223,-0.07C0.223,-0.056 0.219,-0.043 0.212,-0.031C0.205,-0.019 0.195,-0.01 0.184,-0.002C0.172,0.004 0.159,0.008 0.145,0.008Z" style="fill:white;fill-rule:nonzero;"/>
            </g>
            <g transform="matrix(48,0,0,48,903.599,819.048)">
                <path d="M0.179,-0L0.025,-0.545L0.156,-0.545L0.251,-0.162L0.256,-0.162L0.354,-0.545L0.484,-0.545L0.582,-0.164L0.587,-0.164L0.682,-0.545L0.813,-0.545L0.659,-0L0.525,-0L0.423,-0.369L0.415,-0.369L0.313,-0L0.179,-0Z" style="fill:white;fill-rule:nonzero;"/>
            </g>
            <g transform="matrix(48,0,0,48,943.792,819.048)">
                <path d="M0.497,-0.401L0.38,-0.388C0.377,-0.4 0.371,-0.411 0.363,-0.422C0.355,-0.432 0.344,-0.441 0.33,-0.447C0.316,-0.453 0.299,-0.457 0.279,-0.457C0.253,-0.457 0.23,-0.451 0.212,-0.439C0.194,-0.428 0.185,-0.413 0.185,-0.394C0.185,-0.378 0.191,-0.365 0.203,-0.355C0.215,-0.346 0.235,-0.337 0.262,-0.331L0.355,-0.311C0.407,-0.3 0.445,-0.282 0.471,-0.258C0.496,-0.234 0.509,-0.202 0.509,-0.163C0.509,-0.129 0.499,-0.099 0.479,-0.072C0.459,-0.046 0.432,-0.026 0.397,-0.011C0.362,0.003 0.321,0.011 0.276,0.011C0.209,0.011 0.155,-0.003 0.115,-0.031C0.074,-0.059 0.05,-0.099 0.042,-0.149L0.167,-0.161C0.173,-0.136 0.185,-0.118 0.203,-0.105C0.222,-0.093 0.246,-0.086 0.276,-0.086C0.306,-0.086 0.331,-0.093 0.349,-0.105C0.368,-0.118 0.377,-0.133 0.377,-0.152C0.377,-0.167 0.371,-0.18 0.359,-0.19C0.347,-0.201 0.329,-0.208 0.304,-0.214L0.211,-0.233C0.158,-0.244 0.12,-0.263 0.094,-0.288C0.069,-0.314 0.057,-0.347 0.057,-0.387C0.057,-0.421 0.066,-0.45 0.085,-0.474C0.103,-0.499 0.129,-0.518 0.162,-0.532C0.196,-0.546 0.234,-0.553 0.278,-0.553C0.342,-0.553 0.392,-0.539 0.429,-0.512C0.466,-0.484 0.488,-0.448 0.497,-0.401Z" style="fill:white;fill-rule:nonzero;"/>
            </g>
            <g transform="matrix(48,0,0,48,970.144,819.048)">
            </g>
        </g>
        <g>
            <g transform="matrix(1.09449,0,0,1.05469,-23.2338,-44.3412)">
                <ellipse cx="240.48" cy="821.644" rx="8.117" ry="8.181" style="fill:rgb(255,95,86);stroke:rgb(225,69,63);stroke-width:0.89px;"/>
            </g>
            <g transform="matrix(1.09449,0,0,1.05469,3.35407,-44.3412)">
                <ellipse cx="240.48" cy="821.644" rx="8.117" ry="8.181" style="fill:rgb(255,189,46);stroke:rgb(222,161,35);stroke-width:0.89px;"/>
            </g>
            <g transform="matrix(1.09449,0,0,1.05469,29.8141,-44.3412)">
                <ellipse cx="240.48" cy="821.644" rx="8.117" ry="8.181" style="fill:rgb(39,201,63);stroke:rgb(26,171,41);stroke-width:0.89px;"/>
            </g>
        </g>
    </g>
</svg>
